<svg xmlns="http://www.w3.org/2000/svg" viewBox="-48 -940 4354 2462" width="4354" height="2462" font-family="Helvetica, Arial, sans-serif"><defs><marker id="arr-added" viewBox="0 0 10 10" refX="9" refY="5" markerWidth="7" markerHeight="7" orient="auto-start-reverse"><path d="M0 0 L10 5 L0 10 z" fill="#1a7f37"/></marker><marker id="arr-removed" viewBox="0 0 10 10" refX="9" refY="5" markerWidth="7" markerHeight="7" orient="auto-start-reverse"><path d="M0 0 L10 5 L0 10 z" fill="#cf222e"/></marker><marker id="arr-modified" viewBox="0 0 10 10" refX="9" refY="5" markerWidth="7" markerHeight="7" orient="auto-start-reverse"><path d="M0 0 L10 5 L0 10 z" fill="#bf8700"/></marker><marker id="arr-moved" viewBox="0 0 10 10" refX="9" refY="5" markerWidth="7" markerHeight="7" orient="auto-start-reverse"><path d="M0 0 L10 5 L0 10 z" fill="#8250df"/></marker><marker id="arr-dim" viewBox="0 0 10 10" refX="9" refY="5" markerWidth="7" markerHeight="7" orient="auto-start-reverse"><path d="M0 0 L10 5 L0 10 z" fill="#b1b8c0"/></marker></defs><rect x="-48" y="-940" width="4354" height="2462" fill="#ffffff"/><text x="-24" y="-906" font-size="20" font-weight="700" fill="#1f2328">Flow diff: sign-up</text><text x="-24" y="-886" font-size="12" fill="#656d76">sign-up → sign-up   components 3.18.2 → 3.18.2</text><rect x="-24" y="-876" width="16" height="16" rx="4" fill="#1a7f37"/><text x="-16" y="-863.5" font-size="12" font-weight="700" text-anchor="middle" fill="#fff">+</text><text x="-3" y="-863.5" font-size="12" fill="#1f2328">Added</text><rect x="59.0" y="-876" width="16" height="16" rx="4" fill="#cf222e"/><text x="67.0" y="-863.5" font-size="12" font-weight="700" text-anchor="middle" fill="#fff">−</text><text x="80.0" y="-863.5" font-size="12" fill="#1f2328">Removed</text><rect x="156.4" y="-876" width="16" height="16" rx="4" fill="#bf8700"/><text x="164.4" y="-863.5" font-size="12" font-weight="700" text-anchor="middle" fill="#fff">Δ</text><text x="177.4" y="-863.5" font-size="12" fill="#1f2328">Modified</text><rect x="261.0" y="-876" width="16" height="16" rx="4" fill="#8250df"/><text x="269.0" y="-863.5" font-size="12" font-weight="700" text-anchor="middle" fill="#fff">↔</text><line x1="282.0" y1="-868" x2="300.0" y2="-868" stroke="#8250df" stroke-width="2.5" stroke-dasharray="2 4"/><text x="304.0" y="-863.5" font-size="12" fill="#1f2328">Moved</text><rect x="366.0" y="-876" width="16" height="16" rx="4" fill="#d0d7de"/><text x="387.0" y="-863.5" font-size="12" fill="#1f2328">Unchanged</text><path d="M490 -363.0 C 642.1 -363.0, 675.9 -807.0, 822 -807.0" fill="none" stroke="#b1b8c0" stroke-width="1.2" opacity="0.5" marker-end="url(#arr-dim)"/><path d="M490 -341.0 C 804.1 -341.0, 873.9 1449.0, 1182 1449.0" fill="none" stroke="#b1b8c0" stroke-width="1.2" opacity="0.5" marker-end="url(#arr-dim)"/><path d="M490 -319.0 C 1025.5 -319.0, 1144.5 -627.0, 1674 -627.0" fill="none" stroke="#b1b8c0" stroke-width="1.2" opacity="0.5" marker-end="url(#arr-dim)"/><path d="M490 -297.0 C 804.1 -297.0, 873.9 1449.0, 1182 1449.0" fill="none" stroke="#b1b8c0" stroke-width="1.2" opacity="0.5" marker-end="url(#arr-dim)"/><path d="M3322 537.0 C 3372 537.0, 3382 93.0, 3426 93.0" fill="none" stroke="#b1b8c0" stroke-width="1.2" opacity="0.5" marker-end="url(#arr-dim)"/><path d="M1930 -615.0 C 2479.9 -615.0, 158.10000000000002 -305.0, 702 -305.0" fill="none" stroke="#b1b8c0" stroke-width="1.2" opacity="0.5" marker-end="url(#arr-dim)"/><path d="M1930 -615.0 C 2330.5 -615.0, 2419.5 -483.0, 2814 -483.0" fill="none" stroke="#b1b8c0" stroke-width="1.2" opacity="0.5" marker-end="url(#arr-dim)"/><path d="M958 -315.0 C 1281.1 -315.0, -83.10000000000002 -342.0, 234 -342.0" fill="none" stroke="#b1b8c0" stroke-width="1.2" opacity="0.5" marker-end="url(#arr-dim)"/><path d="M958 -271.0 C 1282.9 -271.0, 1355.1 -627.0, 1674 -627.0" fill="none" stroke="#b1b8c0" stroke-width="1.2" opacity="0.5" marker-end="url(#arr-dim)"/><path d="M2794 489.0 C 2919.1 489.0, 2946.9 525.0, 3066 525.0" fill="none" stroke="#b1b8c0" stroke-width="1.2" opacity="0.5" marker-end="url(#arr-dim)"/><path d="M2794 489.0 C 3091.9 489.0, 3158.1 -471.0, 3450 -471.0" fill="none" stroke="#b1b8c0" stroke-width="1.2" opacity="0.5" marker-end="url(#arr-dim)"/><path d="M3706 -459.0 C 4228.9 -459.0, 2021.1 477.0, 2538 477.0" fill="none" stroke="#b1b8c0" stroke-width="1.2" opacity="0.5" marker-end="url(#arr-dim)"/><path d="M1438 1461.0 C 1730.5 1461.0, 1795.5 -436.0, 2082 -436.0" fill="none" stroke="#b1b8c0" stroke-width="1.2" opacity="0.5" marker-end="url(#arr-dim)"/><path d="M3130 -255.0 C 3211.9 -255.0, 3230.1 -256.0, 3306 -256.0" fill="none" stroke="#b1b8c0" stroke-width="1.2" opacity="0.5" marker-end="url(#arr-dim)"/><path d="M3562 -255.0 C 3643.9 -255.0, 3662.1 -267.0, 3738 -267.0" fill="none" stroke="#b1b8c0" stroke-width="1.2" opacity="0.5" marker-end="url(#arr-dim)"/><path d="M3562 -233.0 C 3868.9 -233.0, 2573.1 -267.0, 2874 -267.0" fill="none" stroke="#b1b8c0" stroke-width="1.2" opacity="0.5" marker-end="url(#arr-dim)"/><path d="M1078 -795.0 C 2364.1000000000004 -795.0, 2649.8999999999996 678.0, 3930 678.0" fill="none" stroke="#b1b8c0" stroke-width="1.2" opacity="0.5" marker-end="url(#arr-dim)"/><path d="M4114 -699.0 C 4820.5 -699.0, 1837.5 477.0, 2538 477.0" fill="none" stroke="#b1b8c0" stroke-width="1.2" opacity="0.5" marker-end="url(#arr-dim)"/><path d="M3070 -471.0 C 3232.9 -471.0, 3269.1 93.0, 3426 93.0" fill="none" stroke="#b1b8c0" stroke-width="1.2" opacity="0.5" marker-end="url(#arr-dim)"/><path d="M3682 105.0 C 3823.3 105.0, 3854.7 141.0, 3990 141.0" fill="none" stroke="#b1b8c0" stroke-width="1.2" opacity="0.5" marker-end="url(#arr-dim)"/><path d="M2338 -435.0 C 2554.9 -435.0, 2603.1 -483.0, 2814 -483.0" fill="none" stroke="#b1b8c0" stroke-width="1.2" opacity="0.5" marker-end="url(#arr-dim)"/><path d="M2338 -413.0 C 3024.7 -413.0, 3177.3 -711.0, 3858 -711.0" fill="none" stroke="#b1b8c0" stroke-width="1.2" opacity="0.5" marker-end="url(#arr-dim)"/><path d="M262 297.0 C 312 297.0, 190 -342.0, 234 -342.0" fill="none" stroke="#b1b8c0" stroke-width="1.2" opacity="0.5" marker-end="url(#arr-dim)"/><path d="M958 -293.0 C 1023.7 -293.0, 1038.3 -195.0, 1098 -195.0" fill="none" stroke="#cf222e" stroke-width="2.2" opacity="1.0" stroke-dasharray="7 5" marker-end="url(#arr-removed)"/><path d="M2362 -135.0 C 2443.9 -135.0, 2462.1 -136.0, 2538 -136.0" fill="none" stroke="#1a7f37" stroke-width="2.2" opacity="1.0" marker-end="url(#arr-added)"/><path d="M2794 -135.0 C 2844 -135.0, 2842 -51.0, 2886 -51.0" fill="none" stroke="#1a7f37" stroke-width="2.2" opacity="1.0" marker-end="url(#arr-added)"/><path d="M2794 -113.0 C 3100.9 -113.0, 1805.1 -147.0, 2106 -147.0" fill="none" stroke="#1a7f37" stroke-width="2.2" opacity="1.0" marker-end="url(#arr-added)"/><g opacity="0.35"><rect x="240" y="-408" rx="10" width="250" height="132" fill="#ffffff" stroke="#d0d7de" stroke-width="1"/><path d="M240 -398 q0 -10 10 -10 h230 q10 0 10 10 v24 h-250 z" fill="#1f5c99" fill-opacity="0.22"/><text x="250" y="-386" font-size="13" font-weight="700" fill="#1f5c99">▢ Sign Up Screen</text><text x="252" y="-359" font-size="11" fill="#656d76" font-weight="400">Email Input · passkey</text><circle cx="490" cy="-363.0" r="3.5" fill="#656d76"/><text x="252" y="-337" font-size="11" fill="#656d76" font-weight="400">Sign up with Google</text><circle cx="490" cy="-341.0" r="3.5" fill="#656d76"/><text x="252" y="-315" font-size="11" fill="#656d76" font-weight="400">Sign Up</text><circle cx="490" cy="-319.0" r="3.5" fill="#656d76"/><text x="252" y="-293" font-size="11" fill="#656d76" font-weight="400">Sign in with Facebook</text><circle cx="490" cy="-297.0" r="3.5" fill="#656d76"/></g><g opacity="0.35"><rect x="3072" y="492" rx="10" width="250" height="66" fill="#ffffff" stroke="#d0d7de" stroke-width="1"/><path d="M3072 502 q0 -10 10 -10 h230 q10 0 10 10 v24 h-250 z" fill="#1f5c99" fill-opacity="0.22"/><text x="3082" y="514" font-size="13" font-weight="700" fill="#1f5c99">▢ User Information</text><text x="3084" y="541" font-size="11" fill="#656d76" font-weight="400">Submit</text><circle cx="3322" cy="537.0" r="3.5" fill="#656d76"/></g><g opacity="0.35"><rect x="1680" y="-660" rx="10" width="250" height="66" fill="#ffffff" stroke="#d0d7de" stroke-width="1"/><path d="M1680 -650 q0 -10 10 -10 h230 q10 0 10 10 v24 h-250 z" fill="#8b5cf6" fill-opacity="0.22"/><text x="1690" y="-638" font-size="13" font-weight="700" fill="#8b5cf6">⚡ Sign Up / Magic Link / …</text><text x="1692" y="-611" font-size="11" fill="#656d76" font-weight="400">success</text><circle cx="1930" cy="-615.0" r="3.5" fill="#656d76"/></g><g opacity="0.35"><rect x="708" y="-360" rx="10" width="250" height="110" fill="#ffffff" stroke="#d0d7de" stroke-width="1"/><path d="M708 -350 q0 -10 10 -10 h230 q10 0 10 10 v24 h-250 z" fill="#1f5c99" fill-opacity="0.22"/><text x="718" y="-338" font-size="13" font-weight="700" fill="#1f5c99">▢ Magic Link Sent</text><text x="720" y="-311" font-size="11" fill="#656d76" font-weight="400">Choose another authentication …</text><circle cx="958" cy="-315.0" r="3.5" fill="#656d76"/><text x="720" y="-289" font-size="11" fill="#cf222e" font-weight="600">Polling</text><circle cx="958" cy="-293.0" r="3.5" fill="#cf222e"/><text x="720" y="-267" font-size="11" fill="#656d76" font-weight="400">Send again</text><circle cx="958" cy="-271.0" r="3.5" fill="#656d76"/></g><g opacity="0.35"><rect x="2544" y="444" rx="10" width="250" height="66" fill="#ffffff" stroke="#d0d7de" stroke-width="1"/><path d="M2544 454 q0 -10 10 -10 h230 q10 0 10 10 v24 h-250 z" fill="#8b5cf6" fill-opacity="0.22"/><text x="2554" y="466" font-size="13" font-weight="700" fill="#8b5cf6">⚡ Update User / Magic Lin…</text><text x="2556" y="493" font-size="11" fill="#656d76" font-weight="400">success</text><circle cx="2794" cy="489.0" r="3.5" fill="#656d76"/></g><g opacity="0.35"><rect x="3456" y="-504" rx="10" width="250" height="66" fill="#ffffff" stroke="#d0d7de" stroke-width="1"/><path d="M3456 -494 q0 -10 10 -10 h230 q10 0 10 10 v24 h-250 z" fill="#1f5c99" fill-opacity="0.22"/><text x="3466" y="-482" font-size="13" font-weight="700" fill="#1f5c99">▢ Magic Link Sent</text><text x="3468" y="-455" font-size="11" fill="#656d76" font-weight="400">Send again</text><circle cx="3706" cy="-459.0" r="3.5" fill="#656d76"/></g><g opacity="0.35"><rect x="1188" y="1416" rx="10" width="250" height="66" fill="#ffffff" stroke="#d0d7de" stroke-width="1"/><path d="M1188 1426 q0 -10 10 -10 h230 q10 0 10 10 v24 h-250 z" fill="#8b5cf6" fill-opacity="0.22"/><text x="1198" y="1438" font-size="13" font-weight="700" fill="#8b5cf6">⚡ Sign Up / OAuth</text><text x="1200" y="1465" font-size="11" fill="#656d76" font-weight="400">success</text><circle cx="1438" cy="1461.0" r="3.5" fill="#656d76"/></g><g opacity="0.35"><rect x="2880" y="-300" rx="10" width="250" height="66" fill="#ffffff" stroke="#d0d7de" stroke-width="1"/><path d="M2880 -290 q0 -10 10 -10 h230 q10 0 10 10 v24 h-250 z" fill="#8b5cf6" fill-opacity="0.22"/><text x="2890" y="-278" font-size="13" font-weight="700" fill="#8b5cf6">⚡ Sign Up or In / OTP / E…</text><text x="2892" y="-251" font-size="11" fill="#656d76" font-weight="400">success</text><circle cx="3130" cy="-255.0" r="3.5" fill="#656d76"/></g><g opacity="0.35"><rect x="3312" y="-300" rx="10" width="250" height="88" fill="#ffffff" stroke="#d0d7de" stroke-width="1"/><path d="M3312 -290 q0 -10 10 -10 h230 q10 0 10 10 v24 h-250 z" fill="#1f5c99" fill-opacity="0.22"/><text x="3322" y="-278" font-size="13" font-weight="700" fill="#1f5c99">▢ Verify OTP</text><text x="3324" y="-251" font-size="11" fill="#656d76" font-weight="400">Verify OTP code</text><circle cx="3562" cy="-255.0" r="3.5" fill="#656d76"/><text x="3324" y="-229" font-size="11" fill="#656d76" font-weight="400">Send again</text><circle cx="3562" cy="-233.0" r="3.5" fill="#656d76"/></g><g opacity="0.35"><rect x="3744" y="-300" rx="10" width="250" height="66" fill="#ffffff" stroke="#d0d7de" stroke-width="1"/><path d="M3744 -290 q0 -10 10 -10 h230 q10 0 10 10 v24 h-250 z" fill="#8b5cf6" fill-opacity="0.22"/><text x="3754" y="-278" font-size="13" font-weight="700" fill="#8b5cf6">⚡ Verify Code / OTP / Ema…</text></g><g opacity="0.35"><rect x="828" y="-840" rx="10" width="250" height="66" fill="#ffffff" stroke="#d0d7de" stroke-width="1"/><path d="M828 -830 q0 -10 10 -10 h230 q10 0 10 10 v24 h-250 z" fill="#8b5cf6" fill-opacity="0.22"/><text x="838" y="-818" font-size="13" font-weight="700" fill="#8b5cf6">⚡ Sign Up or In / Passkey…</text><text x="840" y="-791" font-size="11" fill="#656d76" font-weight="400">success</text><circle cx="1078" cy="-795.0" r="3.5" fill="#656d76"/></g><g opacity="0.35"><rect x="3996" y="108" rx="10" width="250" height="66" fill="#ffffff" stroke="#d0d7de" stroke-width="1"/><path d="M3996 118 q0 -10 10 -10 h230 q10 0 10 10 v24 h-250 z" fill="#1f5c99" fill-opacity="0.22"/><text x="4006" y="130" font-size="13" font-weight="700" fill="#1f5c99">▢ New Screen</text></g><g opacity="0.35"><rect x="3864" y="-744" rx="10" width="250" height="66" fill="#ffffff" stroke="#d0d7de" stroke-width="1"/><path d="M3864 -734 q0 -10 10 -10 h230 q10 0 10 10 v24 h-250 z" fill="#1f5c99" fill-opacity="0.22"/><text x="3874" y="-722" font-size="13" font-weight="700" fill="#1f5c99">▢ User Information - Unve…</text><text x="3876" y="-695" font-size="11" fill="#656d76" font-weight="400">Verify</text><circle cx="4114" cy="-699.0" r="3.5" fill="#656d76"/></g><g opacity="0.35"><rect x="3936" y="660" rx="18" width="250" height="36" fill="#f6f8fa" stroke="#d0d7de" stroke-width="1.5"/><text x="4061.0" y="682.0" font-size="13" font-weight="600" text-anchor="middle" fill="#1f2328">◉ End</text></g><g opacity="0.35"><rect x="2820" y="-516" rx="10" width="250" height="66" fill="#ffffff" stroke="#d0d7de" stroke-width="1"/><path d="M2820 -506 q0 -10 10 -10 h230 q10 0 10 10 v24 h-250 z" fill="#1f5c99" fill-opacity="0.22"/><text x="2830" y="-494" font-size="13" font-weight="700" fill="#1f5c99">▢ User Information</text><text x="2832" y="-467" font-size="11" fill="#656d76" font-weight="400">Submit</text><circle cx="3070" cy="-471.0" r="3.5" fill="#656d76"/></g><g opacity="0.35"><rect x="3432" y="60" rx="10" width="250" height="66" fill="#ffffff" stroke="#d0d7de" stroke-width="1"/><path d="M3432 70 q0 -10 10 -10 h230 q10 0 10 10 v24 h-250 z" fill="#8b5cf6" fill-opacity="0.22"/><text x="3442" y="82" font-size="13" font-weight="700" fill="#8b5cf6">⚡ Update User / Properties</text><text x="3444" y="109" font-size="11" fill="#656d76" font-weight="400">success</text><circle cx="3682" cy="105.0" r="3.5" fill="#656d76"/></g><g opacity="0.35"><rect x="2088" y="-480" rx="10" width="250" height="88" fill="#ffffff" stroke="#d0d7de" stroke-width="1"/><path d="M2088 -470 q0 -10 10 -10 h230 q10 0 10 10 v24 h-250 z" fill="#0e9f6e" fill-opacity="0.22"/><text x="2098" y="-458" font-size="13" font-weight="700" fill="#0e9f6e">⑂ Is email verified?</text><text x="2100" y="-431" font-size="11" fill="#656d76" font-weight="400">Verified</text><circle cx="2338" cy="-435.0" r="3.5" fill="#656d76"/><text x="2100" y="-409" font-size="11" fill="#656d76" font-weight="400">Not verified</text><circle cx="2338" cy="-413.0" r="3.5" fill="#656d76"/></g><g opacity="0.35"><rect x="12" y="252" rx="10" width="250" height="66" fill="#ffffff" stroke="#d0d7de" stroke-width="1"/><path d="M12 262 q0 -10 10 -10 h230 q10 0 10 10 v24 h-250 z" fill="#8b5cf6" fill-opacity="0.22"/><text x="22" y="274" font-size="13" font-weight="700" fill="#8b5cf6">⚡ start</text><text x="24" y="301" font-size="11" fill="#656d76" font-weight="400"></text><circle cx="262" cy="297.0" r="3.5" fill="#656d76"/></g><g opacity="1.0"><rect x="1104" y="-228" rx="10" width="250" height="66" fill="#ffffff" stroke="#cf222e" stroke-width="2.5" stroke-dasharray="7 5"/><path d="M1104 -218 q0 -10 10 -10 h230 q10 0 10 10 v24 h-250 z" fill="#1f5c99" fill-opacity="0.22"/><text x="1114" y="-206" font-size="13" font-weight="700" fill="#1f5c99">▢ Verified Successfully</text><circle cx="1354" cy="-228" r="11" fill="#cf222e"/><text x="1354" y="-223.5" font-size="13" font-weight="700" text-anchor="middle" fill="#fff">−</text></g><g opacity="1.0"><rect x="1860" y="-84" rx="10" width="250" height="66" fill="#ffffff" stroke="#cf222e" stroke-width="2.5" stroke-dasharray="7 5"/><path d="M1860 -74 q0 -10 10 -10 h230 q10 0 10 10 v24 h-250 z" fill="#f59e0b" fill-opacity="0.22"/><text x="1870" y="-62" font-size="13" font-weight="700" fill="#f59e0b">⬡ Generic HTTP / GET</text><circle cx="2110" cy="-84" r="11" fill="#cf222e"/><text x="2110" y="-79.5" font-size="13" font-weight="700" text-anchor="middle" fill="#fff">−</text></g><g opacity="1.0"><rect x="2112" y="-180" rx="10" width="250" height="66" fill="#ffffff" stroke="#1a7f37" stroke-width="2.5"/><path d="M2112 -170 q0 -10 10 -10 h230 q10 0 10 10 v24 h-250 z" fill="#8b5cf6" fill-opacity="0.22"/><text x="2122" y="-158" font-size="13" font-weight="700" fill="#8b5cf6">⚡ Sign Up or In / Magic L…</text><text x="2124" y="-131" font-size="11" fill="#1a7f37" font-weight="600">success</text><circle cx="2362" cy="-135.0" r="3.5" fill="#1a7f37"/><circle cx="2362" cy="-180" r="11" fill="#1a7f37"/><text x="2362" y="-175.5" font-size="13" font-weight="700" text-anchor="middle" fill="#fff">+</text></g><g opacity="1.0"><rect x="2544" y="-180" rx="10" width="250" height="88" fill="#ffffff" stroke="#1a7f37" stroke-width="2.5"/><path d="M2544 -170 q0 -10 10 -10 h230 q10 0 10 10 v24 h-250 z" fill="#1f5c99" fill-opacity="0.22"/><text x="2554" y="-158" font-size="13" font-weight="700" fill="#1f5c99">▢ Magic Link Sent</text><text x="2556" y="-131" font-size="11" fill="#1a7f37" font-weight="600">Polling</text><circle cx="2794" cy="-135.0" r="3.5" fill="#1a7f37"/><text x="2556" y="-109" font-size="11" fill="#1a7f37" font-weight="600">Send again</text><circle cx="2794" cy="-113.0" r="3.5" fill="#1a7f37"/><circle cx="2794" cy="-180" r="11" fill="#1a7f37"/><text x="2794" y="-175.5" font-size="13" font-weight="700" text-anchor="middle" fill="#fff">+</text></g><g opacity="1.0"><rect x="2892" y="-84" rx="10" width="250" height="66" fill="#ffffff" stroke="#1a7f37" stroke-width="2.5"/><path d="M2892 -74 q0 -10 10 -10 h230 q10 0 10 10 v24 h-250 z" fill="#1f5c99" fill-opacity="0.22"/><text x="2902" y="-62" font-size="13" font-weight="700" fill="#1f5c99">▢ Verified Successfully</text><circle cx="3142" cy="-84" r="11" fill="#1a7f37"/><text x="3142" y="-79.5" font-size="13" font-weight="700" text-anchor="middle" fill="#fff">+</text></g></svg>