<svg xmlns="http://www.w3.org/2000/svg" viewBox="2052 -280 1150 302" width="1150" height="302" font-family="Helvetica, Arial, sans-serif"><defs><marker id="arr-added" viewBox="0 0 10 10" refX="9" refY="5" markerWidth="7" markerHeight="7" orient="auto-start-reverse"><path d="M0 0 L10 5 L0 10 z" fill="#1a7f37"/></marker><marker id="arr-removed" viewBox="0 0 10 10" refX="9" refY="5" markerWidth="7" markerHeight="7" orient="auto-start-reverse"><path d="M0 0 L10 5 L0 10 z" fill="#cf222e"/></marker><marker id="arr-modified" viewBox="0 0 10 10" refX="9" refY="5" markerWidth="7" markerHeight="7" orient="auto-start-reverse"><path d="M0 0 L10 5 L0 10 z" fill="#bf8700"/></marker><marker id="arr-moved" viewBox="0 0 10 10" refX="9" refY="5" markerWidth="7" markerHeight="7" orient="auto-start-reverse"><path d="M0 0 L10 5 L0 10 z" fill="#8250df"/></marker><marker id="arr-dim" viewBox="0 0 10 10" refX="9" refY="5" markerWidth="7" markerHeight="7" orient="auto-start-reverse"><path d="M0 0 L10 5 L0 10 z" fill="#b1b8c0"/></marker></defs><rect x="2052" y="-280" width="1150" height="302" fill="#ffffff"/><text x="2076" y="-246" font-size="20" font-weight="700" fill="#1f2328">Changed region: Sign Up or In / Magic Link / Email</text><text x="2076" y="-226" font-size="12" fill="#656d76">3 changed step(s), shown with 1-hop context</text><rect x="2076" y="-216" width="16" height="16" rx="4" fill="#1a7f37"/><text x="2084" y="-203.5" font-size="12" font-weight="700" text-anchor="middle" fill="#fff">+</text><text x="2097" y="-203.5" font-size="12" fill="#1f2328">Added</text><rect x="2159.0" y="-216" width="16" height="16" rx="4" fill="#cf222e"/><text x="2167.0" y="-203.5" font-size="12" font-weight="700" text-anchor="middle" fill="#fff">−</text><text x="2180.0" y="-203.5" font-size="12" fill="#1f2328">Removed</text><rect x="2256.4" y="-216" width="16" height="16" rx="4" fill="#bf8700"/><text x="2264.4" y="-203.5" font-size="12" font-weight="700" text-anchor="middle" fill="#fff">Δ</text><text x="2277.4" y="-203.5" font-size="12" fill="#1f2328">Modified</text><rect x="2361.0" y="-216" width="16" height="16" rx="4" fill="#8250df"/><text x="2369.0" y="-203.5" font-size="12" font-weight="700" text-anchor="middle" fill="#fff">↔</text><line x1="2382.0" y1="-208" x2="2400.0" y2="-208" stroke="#8250df" stroke-width="2.5" stroke-dasharray="2 4"/><text x="2404.0" y="-203.5" font-size="12" fill="#1f2328">Moved</text><rect x="2466.0" y="-216" width="16" height="16" rx="4" fill="#d0d7de"/><text x="2487.0" y="-203.5" font-size="12" fill="#1f2328">Unchanged</text><path d="M2362 -135.0 C 2443.9 -135.0, 2462.1 -136.0, 2538 -136.0" fill="none" stroke="#1a7f37" stroke-width="2.2" opacity="1.0" marker-end="url(#arr-added)"/><path d="M2794 -135.0 C 2844 -135.0, 2842 -51.0, 2886 -51.0" fill="none" stroke="#1a7f37" stroke-width="2.2" opacity="1.0" marker-end="url(#arr-added)"/><path d="M2794 -113.0 C 3100.9 -113.0, 1805.1 -147.0, 2106 -147.0" fill="none" stroke="#1a7f37" stroke-width="2.2" opacity="1.0" marker-end="url(#arr-added)"/><g opacity="1.0"><rect x="2112" y="-180" rx="10" width="250" height="66" fill="#ffffff" stroke="#1a7f37" stroke-width="2.5"/><path d="M2112 -170 q0 -10 10 -10 h230 q10 0 10 10 v24 h-250 z" fill="#8b5cf6" fill-opacity="0.22"/><text x="2122" y="-158" font-size="13" font-weight="700" fill="#8b5cf6">⚡ Sign Up or In / Magic L…</text><text x="2124" y="-131" font-size="11" fill="#1a7f37" font-weight="600">success</text><circle cx="2362" cy="-135.0" r="3.5" fill="#1a7f37"/><circle cx="2362" cy="-180" r="11" fill="#1a7f37"/><text x="2362" y="-175.5" font-size="13" font-weight="700" text-anchor="middle" fill="#fff">+</text></g><g opacity="1.0"><rect x="2544" y="-180" rx="10" width="250" height="88" fill="#ffffff" stroke="#1a7f37" stroke-width="2.5"/><path d="M2544 -170 q0 -10 10 -10 h230 q10 0 10 10 v24 h-250 z" fill="#1f5c99" fill-opacity="0.22"/><text x="2554" y="-158" font-size="13" font-weight="700" fill="#1f5c99">▢ Magic Link Sent</text><text x="2556" y="-131" font-size="11" fill="#1a7f37" font-weight="600">Polling</text><circle cx="2794" cy="-135.0" r="3.5" fill="#1a7f37"/><text x="2556" y="-109" font-size="11" fill="#1a7f37" font-weight="600">Send again</text><circle cx="2794" cy="-113.0" r="3.5" fill="#1a7f37"/><circle cx="2794" cy="-180" r="11" fill="#1a7f37"/><text x="2794" y="-175.5" font-size="13" font-weight="700" text-anchor="middle" fill="#fff">+</text></g><g opacity="1.0"><rect x="2892" y="-84" rx="10" width="250" height="66" fill="#ffffff" stroke="#1a7f37" stroke-width="2.5"/><path d="M2892 -74 q0 -10 10 -10 h230 q10 0 10 10 v24 h-250 z" fill="#1f5c99" fill-opacity="0.22"/><text x="2902" y="-62" font-size="13" font-weight="700" fill="#1f5c99">▢ Verified Successfully</text><circle cx="3142" cy="-84" r="11" fill="#1a7f37"/><text x="3142" y="-79.5" font-size="13" font-weight="700" text-anchor="middle" fill="#fff">+</text></g></svg>