<svg xmlns="http://www.w3.org/2000/svg" viewBox="-48 -760 2446 2282" width="2446" height="2282" font-family="Helvetica, Arial, sans-serif"><defs><marker id="arr-added" viewBox="0 0 10 10" refX="9" refY="5" markerWidth="7" markerHeight="7" orient="auto-start-reverse"><path d="M0 0 L10 5 L0 10 z" fill="#1a7f37"/></marker><marker id="arr-removed" viewBox="0 0 10 10" refX="9" refY="5" markerWidth="7" markerHeight="7" orient="auto-start-reverse"><path d="M0 0 L10 5 L0 10 z" fill="#cf222e"/></marker><marker id="arr-modified" viewBox="0 0 10 10" refX="9" refY="5" markerWidth="7" markerHeight="7" orient="auto-start-reverse"><path d="M0 0 L10 5 L0 10 z" fill="#bf8700"/></marker><marker id="arr-moved" viewBox="0 0 10 10" refX="9" refY="5" markerWidth="7" markerHeight="7" orient="auto-start-reverse"><path d="M0 0 L10 5 L0 10 z" fill="#8250df"/></marker><marker id="arr-dim" viewBox="0 0 10 10" refX="9" refY="5" markerWidth="7" markerHeight="7" orient="auto-start-reverse"><path d="M0 0 L10 5 L0 10 z" fill="#b1b8c0"/></marker></defs><rect x="-48" y="-760" width="2446" height="2282" fill="#ffffff"/><text x="-24" y="-726" font-size="20" font-weight="700" fill="#1f2328">Changed region: Sign Up Screen</text><text x="-24" y="-706" font-size="12" fill="#656d76">2 changed step(s), shown with 1-hop context</text><rect x="-24" y="-696" width="16" height="16" rx="4" fill="#1a7f37"/><text x="-16" y="-683.5" font-size="12" font-weight="700" text-anchor="middle" fill="#fff">+</text><text x="-3" y="-683.5" font-size="12" fill="#1f2328">Added</text><rect x="59.0" y="-696" width="16" height="16" rx="4" fill="#cf222e"/><text x="67.0" y="-683.5" font-size="12" font-weight="700" text-anchor="middle" fill="#fff">−</text><text x="80.0" y="-683.5" font-size="12" fill="#1f2328">Removed</text><rect x="156.4" y="-696" width="16" height="16" rx="4" fill="#bf8700"/><text x="164.4" y="-683.5" font-size="12" font-weight="700" text-anchor="middle" fill="#fff">Δ</text><text x="177.4" y="-683.5" font-size="12" fill="#1f2328">Modified</text><rect x="261.0" y="-696" width="16" height="16" rx="4" fill="#8250df"/><text x="269.0" y="-683.5" font-size="12" font-weight="700" text-anchor="middle" fill="#fff">↔</text><line x1="282.0" y1="-688" x2="300.0" y2="-688" stroke="#8250df" stroke-width="2.5" stroke-dasharray="2 4"/><text x="304.0" y="-683.5" font-size="12" fill="#1f2328">Moved</text><rect x="366.0" y="-696" width="16" height="16" rx="4" fill="#d0d7de"/><text x="387.0" y="-683.5" font-size="12" fill="#1f2328">Unchanged</text><path d="M490 -341.0 C 804.1 -341.0, 873.9 1449.0, 1182 1449.0" fill="none" stroke="#b1b8c0" stroke-width="1.2" opacity="0.5" marker-end="url(#arr-dim)"/><path d="M490 -319.0 C 1025.5 -319.0, 1144.5 -627.0, 1674 -627.0" fill="none" stroke="#b1b8c0" stroke-width="1.2" opacity="0.5" marker-end="url(#arr-dim)"/><path d="M1930 -615.0 C 2479.9 -615.0, 158.10000000000002 -305.0, 702 -305.0" fill="none" stroke="#b1b8c0" stroke-width="1.2" opacity="0.5" marker-end="url(#arr-dim)"/><path d="M958 -315.0 C 1281.1 -315.0, -83.10000000000002 -353.0, 234 -353.0" fill="none" stroke="#b1b8c0" stroke-width="1.2" opacity="0.5" marker-end="url(#arr-dim)"/><path d="M958 -271.0 C 1282.9 -271.0, 1355.1 -627.0, 1674 -627.0" fill="none" stroke="#b1b8c0" stroke-width="1.2" opacity="0.5" marker-end="url(#arr-dim)"/><path d="M1438 1461.0 C 1730.5 1461.0, 1795.5 -436.0, 2082 -436.0" fill="none" stroke="#b1b8c0" stroke-width="1.2" opacity="0.5" marker-end="url(#arr-dim)"/><path d="M262 297.0 C 312 297.0, 190 -353.0, 234 -353.0" fill="none" stroke="#b1b8c0" stroke-width="1.2" opacity="0.5" marker-end="url(#arr-dim)"/><path d="M490 -363.0 C 804.1 -363.0, 873.9 1449.0, 1182 1449.0" fill="none" stroke="#1a7f37" stroke-width="2.2" opacity="1.0" marker-end="url(#arr-added)"/><g opacity="0.35"><rect x="1680" y="-660" rx="10" width="250" height="66" fill="#ffffff" stroke="#d0d7de" stroke-width="1"/><path d="M1680 -650 q0 -10 10 -10 h230 q10 0 10 10 v24 h-250 z" fill="#8b5cf6" fill-opacity="0.22"/><text x="1690" y="-638" font-size="13" font-weight="700" fill="#8b5cf6">⚡ Sign Up / Magic Link / …</text><text x="1692" y="-611" font-size="11" fill="#656d76" font-weight="400">success</text><circle cx="1930" cy="-615.0" r="3.5" fill="#656d76"/></g><g opacity="0.35"><rect x="708" y="-360" rx="10" width="250" height="110" fill="#ffffff" stroke="#d0d7de" stroke-width="1"/><path d="M708 -350 q0 -10 10 -10 h230 q10 0 10 10 v24 h-250 z" fill="#1f5c99" fill-opacity="0.22"/><text x="718" y="-338" font-size="13" font-weight="700" fill="#1f5c99">▢ Magic Link Sent</text><text x="720" y="-311" font-size="11" fill="#656d76" font-weight="400">Choose another authentication …</text><circle cx="958" cy="-315.0" r="3.5" fill="#656d76"/><text x="720" y="-289" font-size="11" fill="#656d76" font-weight="400">polling</text><circle cx="958" cy="-293.0" r="3.5" fill="#656d76"/><text x="720" y="-267" font-size="11" fill="#656d76" font-weight="400">Send again</text><circle cx="958" cy="-271.0" r="3.5" fill="#656d76"/></g><g opacity="0.35"><rect x="1188" y="1416" rx="10" width="250" height="66" fill="#ffffff" stroke="#d0d7de" stroke-width="1"/><path d="M1188 1426 q0 -10 10 -10 h230 q10 0 10 10 v24 h-250 z" fill="#8b5cf6" fill-opacity="0.22"/><text x="1198" y="1438" font-size="13" font-weight="700" fill="#8b5cf6">⚡ Sign Up / OAuth</text><text x="1200" y="1465" font-size="11" fill="#656d76" font-weight="400">success</text><circle cx="1438" cy="1461.0" r="3.5" fill="#656d76"/></g><g opacity="0.35"><rect x="2088" y="-480" rx="10" width="250" height="88" fill="#ffffff" stroke="#d0d7de" stroke-width="1"/><path d="M2088 -470 q0 -10 10 -10 h230 q10 0 10 10 v24 h-250 z" fill="#0e9f6e" fill-opacity="0.22"/><text x="2098" y="-458" font-size="13" font-weight="700" fill="#0e9f6e">⑂ Is email verified?</text><text x="2100" y="-431" font-size="11" fill="#656d76" font-weight="400">Verified</text><circle cx="2338" cy="-435.0" r="3.5" fill="#656d76"/><text x="2100" y="-409" font-size="11" fill="#656d76" font-weight="400">Not verified</text><circle cx="2338" cy="-413.0" r="3.5" fill="#656d76"/></g><g opacity="0.35"><rect x="12" y="252" rx="10" width="250" height="66" fill="#ffffff" stroke="#d0d7de" stroke-width="1"/><path d="M12 262 q0 -10 10 -10 h230 q10 0 10 10 v24 h-250 z" fill="#8b5cf6" fill-opacity="0.22"/><text x="22" y="274" font-size="13" font-weight="700" fill="#8b5cf6">⚡ start</text><text x="24" y="301" font-size="11" fill="#656d76" font-weight="400"></text><circle cx="262" cy="297.0" r="3.5" fill="#656d76"/></g><g opacity="1.0"><rect x="240" y="-408" rx="10" width="250" height="110" fill="#ffffff" stroke="#bf8700" stroke-width="2.5"/><path d="M240 -398 q0 -10 10 -10 h230 q10 0 10 10 v24 h-250 z" fill="#1f5c99" fill-opacity="0.22"/><text x="250" y="-386" font-size="13" font-weight="700" fill="#1f5c99">▢ Sign Up Screen</text><text x="252" y="-359" font-size="11" fill="#1a7f37" font-weight="600">Sign in with Apple</text><circle cx="490" cy="-363.0" r="3.5" fill="#1a7f37"/><text x="252" y="-337" font-size="11" fill="#656d76" font-weight="400">Sign up with Google</text><circle cx="490" cy="-341.0" r="3.5" fill="#656d76"/><text x="252" y="-315" font-size="11" fill="#656d76" font-weight="400">Sign Up</text><circle cx="490" cy="-319.0" r="3.5" fill="#656d76"/><circle cx="490" cy="-408" r="11" fill="#bf8700"/><text x="490" y="-403.5" font-size="13" font-weight="700" text-anchor="middle" fill="#fff">Δ</text></g></svg>