<svg xmlns="http://www.w3.org/2000/svg" viewBox="48 -496 1930 924" width="1930" height="924" font-family="Helvetica, Arial, sans-serif"><defs><marker id="arr-added" viewBox="0 0 10 10" refX="9" refY="5" markerWidth="7" markerHeight="7" orient="auto-start-reverse"><path d="M0 0 L10 5 L0 10 z" fill="#1a7f37"/></marker><marker id="arr-removed" viewBox="0 0 10 10" refX="9" refY="5" markerWidth="7" markerHeight="7" orient="auto-start-reverse"><path d="M0 0 L10 5 L0 10 z" fill="#cf222e"/></marker><marker id="arr-modified" viewBox="0 0 10 10" refX="9" refY="5" markerWidth="7" markerHeight="7" orient="auto-start-reverse"><path d="M0 0 L10 5 L0 10 z" fill="#bf8700"/></marker><marker id="arr-moved" viewBox="0 0 10 10" refX="9" refY="5" markerWidth="7" markerHeight="7" orient="auto-start-reverse"><path d="M0 0 L10 5 L0 10 z" fill="#8250df"/></marker><marker id="arr-dim" viewBox="0 0 10 10" refX="9" refY="5" markerWidth="7" markerHeight="7" orient="auto-start-reverse"><path d="M0 0 L10 5 L0 10 z" fill="#b1b8c0"/></marker></defs><rect x="48" y="-496" width="1930" height="924" fill="#ffffff"/><text x="72" y="-462" font-size="20" font-weight="700" fill="#1f2328">Flow diff: sign-in</text><text x="72" y="-442" font-size="12" fill="#656d76">sign-in → sign-in   components 3.18.2 → 3.18.2</text><rect x="72" y="-432" width="16" height="16" rx="4" fill="#1a7f37"/><text x="80" y="-419.5" font-size="12" font-weight="700" text-anchor="middle" fill="#fff">+</text><text x="93" y="-419.5" font-size="12" fill="#1f2328">Added</text><rect x="155.0" y="-432" width="16" height="16" rx="4" fill="#cf222e"/><text x="163.0" y="-419.5" font-size="12" font-weight="700" text-anchor="middle" fill="#fff">−</text><text x="176.0" y="-419.5" font-size="12" fill="#1f2328">Removed</text><rect x="252.4" y="-432" width="16" height="16" rx="4" fill="#bf8700"/><text x="260.4" y="-419.5" font-size="12" font-weight="700" text-anchor="middle" fill="#fff">Δ</text><text x="273.4" y="-419.5" font-size="12" fill="#1f2328">Modified</text><rect x="357.0" y="-432" width="16" height="16" rx="4" fill="#8250df"/><text x="365.0" y="-419.5" font-size="12" font-weight="700" text-anchor="middle" fill="#fff">↔</text><line x1="378.0" y1="-424" x2="396.0" y2="-424" stroke="#8250df" stroke-width="2.5" stroke-dasharray="2 4"/><text x="400.0" y="-419.5" font-size="12" fill="#1f2328">Moved</text><rect x="462.0" y="-432" width="16" height="16" rx="4" fill="#d0d7de"/><text x="483.0" y="-419.5" font-size="12" fill="#1f2328">Unchanged</text><path d="M598 291.0 C 852.7 291.0, 909.3 69.0, 1158 69.0" fill="none" stroke="#b1b8c0" stroke-width="1.2" opacity="0.5" marker-end="url(#arr-dim)"/><path d="M1414 81.0 C 1528.3 81.0, 1553.7 282.0, 1662 282.0" fill="none" stroke="#b1b8c0" stroke-width="1.2" opacity="0.5" marker-end="url(#arr-dim)"/><path d="M1414 81.0 C 1661.5 81.0, 616.5 -352.0, 858 -352.0" fill="none" stroke="#b1b8c0" stroke-width="1.2" opacity="0.5" marker-end="url(#arr-dim)"/><path d="M1114 -351.0 C 1458.7 -351.0, 3.3000000000000114 257.0, 342 257.0" fill="none" stroke="#b1b8c0" stroke-width="1.2" opacity="0.5" marker-end="url(#arr-dim)"/><path d="M1114 -329.0 C 1164 -329.0, 1114 69.0, 1158 69.0" fill="none" stroke="#b1b8c0" stroke-width="1.2" opacity="0.5" marker-end="url(#arr-dim)"/><path d="M358 309.0 C 408 309.0, 298 257.0, 342 257.0" fill="none" stroke="#b1b8c0" stroke-width="1.2" opacity="0.5" marker-end="url(#arr-dim)"/><path d="M598 225.0 C 863.5 225.0, 922.5 344.0, 1182 344.0" fill="none" stroke="#cf222e" stroke-width="2.2" opacity="1.0" stroke-dasharray="7 5" marker-end="url(#arr-removed)"/><path d="M598 247.0 C 863.5 247.0, 922.5 344.0, 1182 344.0" fill="none" stroke="#1a7f37" stroke-width="2.2" opacity="1.0" marker-end="url(#arr-added)"/><path d="M598 269.0 C 863.5 269.0, 922.5 344.0, 1182 344.0" fill="none" stroke="#8250df" stroke-width="1.8" opacity="1.0" stroke-dasharray="2 4" marker-end="url(#arr-moved)"/><path d="M598 313.0 C 847.3 313.0, 902.7 273.0, 1146 273.0" fill="none" stroke="#cf222e" stroke-width="2.2" opacity="1.0" stroke-dasharray="7 5" marker-end="url(#arr-removed)"/><path d="M1438 345.0 C 1541.5 345.0, 1564.5 282.0, 1662 282.0" fill="none" stroke="#8250df" stroke-width="1.8" opacity="1.0" stroke-dasharray="2 4" marker-end="url(#arr-moved)"/><path d="M1438 367.0 C 1541.5 367.0, 1564.5 282.0, 1662 282.0" fill="none" stroke="#8250df" stroke-width="1.8" opacity="1.0" stroke-dasharray="2 4" marker-end="url(#arr-moved)"/><path d="M1402 285.0 C 1521.7 285.0, 1548.3 282.0, 1662 282.0" fill="none" stroke="#cf222e" stroke-width="2.2" opacity="1.0" stroke-dasharray="7 5" marker-end="url(#arr-removed)"/><g opacity="0.35"><rect x="1668" y="264" rx="18" width="250" height="36" fill="#f6f8fa" stroke="#d0d7de" stroke-width="1.5"/><text x="1793.0" y="286.0" font-size="13" font-weight="600" text-anchor="middle" fill="#1f2328">◉ End</text></g><g opacity="0.35"><rect x="1164" y="36" rx="10" width="250" height="66" fill="#ffffff" stroke="#d0d7de" stroke-width="1"/><path d="M1164 46 q0 -10 10 -10 h230 q10 0 10 10 v24 h-250 z" fill="#8b5cf6" fill-opacity="0.22"/><text x="1174" y="58" font-size="13" font-weight="700" fill="#8b5cf6">⚡ Sign In / Magic Link / …</text><text x="1176" y="85" font-size="11" fill="#656d76" font-weight="400">success</text><circle cx="1414" cy="81.0" r="3.5" fill="#656d76"/></g><g opacity="0.35"><rect x="864" y="-396" rx="10" width="250" height="88" fill="#ffffff" stroke="#d0d7de" stroke-width="1"/><path d="M864 -386 q0 -10 10 -10 h230 q10 0 10 10 v24 h-250 z" fill="#1f5c99" fill-opacity="0.22"/><text x="874" y="-374" font-size="13" font-weight="700" fill="#1f5c99">▢ Magic Link Sent</text><text x="876" y="-347" font-size="11" fill="#656d76" font-weight="400">Choose another authentication …</text><circle cx="1114" cy="-351.0" r="3.5" fill="#656d76"/><text x="876" y="-325" font-size="11" fill="#656d76" font-weight="400">Send again</text><circle cx="1114" cy="-329.0" r="3.5" fill="#656d76"/></g><g opacity="1.0"><rect x="1188" y="300" rx="10" width="250" height="88" fill="#ffffff" stroke="#8250df" stroke-width="2.5"/><path d="M1188 310 q0 -10 10 -10 h230 q10 0 10 10 v24 h-250 z" fill="#8b5cf6" fill-opacity="0.22"/><text x="1198" y="322" font-size="13" font-weight="700" fill="#8b5cf6">⚡ Sign In / OAuth</text><text x="1200" y="349" font-size="11" fill="#656d76" font-weight="400">OAuthStartFailed</text><circle cx="1438" cy="345.0" r="3.5" fill="#656d76"/><text x="1200" y="371" font-size="11" fill="#656d76" font-weight="400">success</text><circle cx="1438" cy="367.0" r="3.5" fill="#656d76"/><circle cx="1438" cy="300" r="11" fill="#8250df"/><text x="1438" y="304.5" font-size="13" font-weight="700" text-anchor="middle" fill="#fff">↔</text></g><g opacity="0.35"><rect x="108" y="264" rx="10" width="250" height="66" fill="#ffffff" stroke="#d0d7de" stroke-width="1"/><path d="M108 274 q0 -10 10 -10 h230 q10 0 10 10 v24 h-250 z" fill="#8b5cf6" fill-opacity="0.22"/><text x="118" y="286" font-size="13" font-weight="700" fill="#8b5cf6">⚡ start</text><text x="120" y="313" font-size="11" fill="#656d76" font-weight="400"></text><circle cx="358" cy="309.0" r="3.5" fill="#656d76"/></g><g opacity="1.0"><rect x="348" y="180" rx="10" width="250" height="154" fill="#ffffff" stroke="#bf8700" stroke-width="2.5"/><path d="M348 190 q0 -10 10 -10 h230 q10 0 10 10 v24 h-250 z" fill="#1f5c99" fill-opacity="0.22"/><text x="358" y="202" font-size="13" font-weight="700" fill="#1f5c99">▢ Sign In Screen</text><text x="360" y="229" font-size="11" fill="#cf222e" font-weight="600">Sign in with Apple</text><circle cx="598" cy="225.0" r="3.5" fill="#cf222e"/><text x="360" y="251" font-size="11" fill="#1a7f37" font-weight="600">Sign in with Apple</text><circle cx="598" cy="247.0" r="3.5" fill="#1a7f37"/><text x="360" y="273" font-size="11" fill="#656d76" font-weight="400">Sign in with Google</text><circle cx="598" cy="269.0" r="3.5" fill="#656d76"/><text x="360" y="295" font-size="11" fill="#656d76" font-weight="400">Sign In</text><circle cx="598" cy="291.0" r="3.5" fill="#656d76"/><text x="360" y="317" font-size="11" fill="#cf222e" font-weight="600">Email Input · passkey</text><circle cx="598" cy="313.0" r="3.5" fill="#cf222e"/><circle cx="598" cy="180" r="11" fill="#bf8700"/><text x="598" y="184.5" font-size="13" font-weight="700" text-anchor="middle" fill="#fff">Δ</text></g><g opacity="1.0"><rect x="1152" y="240" rx="10" width="250" height="66" fill="#ffffff" stroke="#cf222e" stroke-width="2.5" stroke-dasharray="7 5"/><path d="M1152 250 q0 -10 10 -10 h230 q10 0 10 10 v24 h-250 z" fill="#8b5cf6" fill-opacity="0.22"/><text x="1162" y="262" font-size="13" font-weight="700" fill="#8b5cf6">⚡ Sign Up or In / Passkey…</text><text x="1164" y="289" font-size="11" fill="#cf222e" font-weight="600">success</text><circle cx="1402" cy="285.0" r="3.5" fill="#cf222e"/><circle cx="1402" cy="240" r="11" fill="#cf222e"/><text x="1402" y="244.5" font-size="13" font-weight="700" text-anchor="middle" fill="#fff">−</text></g></svg>