<svg xmlns="http://www.w3.org/2000/svg" viewBox="228 -664 2074 842" width="2074" height="842" font-family="Helvetica, Arial, sans-serif"><defs><marker id="arr-added" viewBox="0 0 10 10" refX="9" refY="5" markerWidth="7" markerHeight="7" orient="auto-start-reverse"><path d="M0 0 L10 5 L0 10 z" fill="#1a7f37"/></marker><marker id="arr-removed" viewBox="0 0 10 10" refX="9" refY="5" markerWidth="7" markerHeight="7" orient="auto-start-reverse"><path d="M0 0 L10 5 L0 10 z" fill="#cf222e"/></marker><marker id="arr-modified" viewBox="0 0 10 10" refX="9" refY="5" markerWidth="7" markerHeight="7" orient="auto-start-reverse"><path d="M0 0 L10 5 L0 10 z" fill="#bf8700"/></marker><marker id="arr-moved" viewBox="0 0 10 10" refX="9" refY="5" markerWidth="7" markerHeight="7" orient="auto-start-reverse"><path d="M0 0 L10 5 L0 10 z" fill="#8250df"/></marker><marker id="arr-dim" viewBox="0 0 10 10" refX="9" refY="5" markerWidth="7" markerHeight="7" orient="auto-start-reverse"><path d="M0 0 L10 5 L0 10 z" fill="#b1b8c0"/></marker></defs><rect x="228" y="-664" width="2074" height="842" fill="#ffffff"/><text x="252" y="-630" font-size="20" font-weight="700" fill="#1f2328">Flow diff: step-up</text><text x="252" y="-610" font-size="12" fill="#656d76">step-up → step-up   components 3.14.9 → 3.18.2</text><rect x="252" y="-600" width="16" height="16" rx="4" fill="#1a7f37"/><text x="260" y="-587.5" font-size="12" font-weight="700" text-anchor="middle" fill="#fff">+</text><text x="273" y="-587.5" font-size="12" fill="#1f2328">Added</text><rect x="335.0" y="-600" width="16" height="16" rx="4" fill="#cf222e"/><text x="343.0" y="-587.5" font-size="12" font-weight="700" text-anchor="middle" fill="#fff">−</text><text x="356.0" y="-587.5" font-size="12" fill="#1f2328">Removed</text><rect x="432.4" y="-600" width="16" height="16" rx="4" fill="#bf8700"/><text x="440.4" y="-587.5" font-size="12" font-weight="700" text-anchor="middle" fill="#fff">Δ</text><text x="453.4" y="-587.5" font-size="12" fill="#1f2328">Modified</text><rect x="537.0" y="-600" width="16" height="16" rx="4" fill="#8250df"/><text x="545.0" y="-587.5" font-size="12" font-weight="700" text-anchor="middle" fill="#fff">↔</text><line x1="558.0" y1="-592" x2="576.0" y2="-592" stroke="#8250df" stroke-width="2.5" stroke-dasharray="2 4"/><text x="580.0" y="-587.5" font-size="12" fill="#1f2328">Moved</text><rect x="642.0" y="-600" width="16" height="16" rx="4" fill="#d0d7de"/><text x="663.0" y="-587.5" font-size="12" fill="#1f2328">Unchanged</text><path d="M718 -51.0 C 821.5 -51.0, 844.5 -52.0, 942 -52.0" fill="none" stroke="#b1b8c0" stroke-width="1.2" opacity="0.5" marker-end="url(#arr-dim)"/><path d="M1618 117.0 C 1786.3 117.0, 1823.7 66.0, 1986 66.0" fill="none" stroke="#b1b8c0" stroke-width="1.2" opacity="0.5" marker-end="url(#arr-dim)"/><path d="M1198 -51.0 C 1274.5 -51.0, 1291.5 105.0, 1362 105.0" fill="none" stroke="#b1b8c0" stroke-width="1.2" opacity="0.5" marker-end="url(#arr-dim)"/><path d="M1198 -29.0 C 1274.5 -29.0, 1291.5 -183.0, 1362 -183.0" fill="none" stroke="#b1b8c0" stroke-width="1.2" opacity="0.5" marker-end="url(#arr-dim)"/><path d="M1618 -171.0 C 1786.3 -171.0, 1823.7 66.0, 1986 66.0" fill="none" stroke="#b1b8c0" stroke-width="1.2" opacity="0.5" marker-end="url(#arr-dim)"/><path d="M1618 -171.0 C 1730.5 -171.0, 1255.5 -509.0, 1362 -509.0" fill="none" stroke="#b1b8c0" stroke-width="1.2" opacity="0.5" marker-end="url(#arr-dim)"/><path d="M1618 -519.0 C 1919.5 -519.0, 646.5 -52.0, 942 -52.0" fill="none" stroke="#b1b8c0" stroke-width="1.2" opacity="0.5" marker-end="url(#arr-dim)"/><path d="M1618 -497.0 C 1683.7 -497.0, 1698.3 -399.0, 1758 -399.0" fill="none" stroke="#b1b8c0" stroke-width="1.2" opacity="0.5" marker-end="url(#arr-dim)"/><path d="M1618 -475.0 C 1730.5 -475.0, 1255.5 -183.0, 1362 -183.0" fill="none" stroke="#b1b8c0" stroke-width="1.2" opacity="0.5" marker-end="url(#arr-dim)"/><path d="M538 -3.0 C 588 -3.0, 418 -63.0, 462 -63.0" fill="none" stroke="#b1b8c0" stroke-width="1.2" opacity="0.5" marker-end="url(#arr-dim)"/><g opacity="0.35"><rect x="1764" y="-432" rx="10" width="250" height="66" fill="#ffffff" stroke="#d0d7de" stroke-width="1"/><path d="M1764 -422 q0 -10 10 -10 h230 q10 0 10 10 v24 h-250 z" fill="#1f5c99" fill-opacity="0.22"/><text x="1774" y="-410" font-size="13" font-weight="700" fill="#1f5c99">▢ Verified Successfully</text></g><g opacity="0.35"><rect x="468" y="-96" rx="10" width="250" height="66" fill="#ffffff" stroke="#d0d7de" stroke-width="1"/><path d="M468 -86 q0 -10 10 -10 h230 q10 0 10 10 v24 h-250 z" fill="#8b5cf6" fill-opacity="0.22"/><text x="478" y="-74" font-size="13" font-weight="700" fill="#8b5cf6">⚡ Step Up</text><text x="480" y="-47" font-size="11" fill="#656d76" font-weight="400">success</text><circle cx="718" cy="-51.0" r="3.5" fill="#656d76"/></g><g opacity="0.35"><rect x="1368" y="72" rx="10" width="250" height="66" fill="#ffffff" stroke="#d0d7de" stroke-width="1"/><path d="M1368 82 q0 -10 10 -10 h230 q10 0 10 10 v24 h-250 z" fill="#8b5cf6" fill-opacity="0.22"/><text x="1378" y="94" font-size="13" font-weight="700" fill="#8b5cf6">⚡ Sign In / OAuth</text><text x="1380" y="121" font-size="11" fill="#656d76" font-weight="400">success</text><circle cx="1618" cy="117.0" r="3.5" fill="#656d76"/></g><g opacity="0.35"><rect x="948" y="-96" rx="10" width="250" height="88" fill="#ffffff" stroke="#d0d7de" stroke-width="1"/><path d="M948 -86 q0 -10 10 -10 h230 q10 0 10 10 v24 h-250 z" fill="#1f5c99" fill-opacity="0.22"/><text x="958" y="-74" font-size="13" font-weight="700" fill="#1f5c99">▢ Step Up</text><text x="960" y="-47" font-size="11" fill="#656d76" font-weight="400">Continue with Google</text><circle cx="1198" cy="-51.0" r="3.5" fill="#656d76"/><text x="960" y="-25" font-size="11" fill="#656d76" font-weight="400">Continue</text><circle cx="1198" cy="-29.0" r="3.5" fill="#656d76"/></g><g opacity="0.35"><rect x="1992" y="48" rx="18" width="250" height="36" fill="#f6f8fa" stroke="#d0d7de" stroke-width="1.5"/><text x="2117.0" y="70.0" font-size="13" font-weight="600" text-anchor="middle" fill="#1f2328">◉ End</text></g><g opacity="0.35"><rect x="1368" y="-216" rx="10" width="250" height="66" fill="#ffffff" stroke="#d0d7de" stroke-width="1"/><path d="M1368 -206 q0 -10 10 -10 h230 q10 0 10 10 v24 h-250 z" fill="#8b5cf6" fill-opacity="0.22"/><text x="1378" y="-194" font-size="13" font-weight="700" fill="#8b5cf6">⚡ Sign In / Magic Link / …</text><text x="1380" y="-167" font-size="11" fill="#656d76" font-weight="400">success</text><circle cx="1618" cy="-171.0" r="3.5" fill="#656d76"/></g><g opacity="0.35"><rect x="1368" y="-564" rx="10" width="250" height="110" fill="#ffffff" stroke="#d0d7de" stroke-width="1"/><path d="M1368 -554 q0 -10 10 -10 h230 q10 0 10 10 v24 h-250 z" fill="#1f5c99" fill-opacity="0.22"/><text x="1378" y="-542" font-size="13" font-weight="700" fill="#1f5c99">▢ Magic Link Sent</text><text x="1380" y="-515" font-size="11" fill="#656d76" font-weight="400">Choose another authentication …</text><circle cx="1618" cy="-519.0" r="3.5" fill="#656d76"/><text x="1380" y="-493" font-size="11" fill="#656d76" font-weight="400">polling</text><circle cx="1618" cy="-497.0" r="3.5" fill="#656d76"/><text x="1380" y="-471" font-size="11" fill="#656d76" font-weight="400">Send again</text><circle cx="1618" cy="-475.0" r="3.5" fill="#656d76"/></g><g opacity="0.35"><rect x="288" y="-48" rx="10" width="250" height="66" fill="#ffffff" stroke="#d0d7de" stroke-width="1"/><path d="M288 -38 q0 -10 10 -10 h230 q10 0 10 10 v24 h-250 z" fill="#8b5cf6" fill-opacity="0.22"/><text x="298" y="-26" font-size="13" font-weight="700" fill="#8b5cf6">⚡ start</text><text x="300" y="1" font-size="11" fill="#656d76" font-weight="400"></text><circle cx="538" cy="-3.0" r="3.5" fill="#656d76"/></g></svg>